<?xml version="1.0" encoding="utf-8" standalone="no"?>
<!DOCTYPE svg PUBLIC "-//W3C//DTD SVG 1.1//EN"
  "http://www.w3.org/Graphics/SVG/1.1/DTD/svg11.dtd">
<svg xmlns:xlink="http://www.w3.org/1999/xlink" width="1332pt" height="432pt" viewBox="0 0 1332 432" xmlns="http://www.w3.org/2000/svg" version="1.1">
 <metadata>
  <rdf:RDF xmlns:dc="http://purl.org/dc/elements/1.1/" xmlns:cc="http://creativecommons.org/ns#" xmlns:rdf="http://www.w3.org/1999/02/22-rdf-syntax-ns#">
   <cc:Work>
    <dc:type rdf:resource="http://purl.org/dc/dcmitype/StillImage"/>
    <dc:date>2024-06-21T14:39:58.794374</dc:date>
    <dc:format>image/svg+xml</dc:format>
    <dc:creator>
     <cc:Agent>
      <dc:title>Matplotlib v3.7.2, https://matplotlib.org/</dc:title>
     </cc:Agent>
    </dc:creator>
   </cc:Work>
  </rdf:RDF>
 </metadata>
 <defs>
  <style type="text/css">*{stroke-linejoin: round; stroke-linecap: butt}</style>
 </defs>
 <g id="figure_1">
  <g id="patch_1">
   <path d="M 0 432 
L 1332 432 
L 1332 0 
L 0 0 
z
" style="fill: #ffffff"/>
  </g>
  <g id="axes_1">
   <g id="patch_2">
    <path d="M 18.646458 388.6 
L 437.94125 388.6 
L 437.94125 27.6 
L 18.646458 27.6 
z
" style="fill: #ffffff"/>
   </g>
   <g id="patch_3">
    <path d="M 37.705312 388.6 
L 53.587691 388.6 
L 53.587691 194.357331 
L 37.705312 194.357331 
z
" clip-path="url(#pf7cbd8b87a)" style="fill: #1f77b4"/>
   </g>
   <g id="patch_4">
    <path d="M 143.587836 388.6 
L 159.470214 388.6 
L 159.470214 181.14883 
L 143.587836 181.14883 
z
" clip-path="url(#pf7cbd8b87a)" style="fill: #1f77b4"/>
   </g>
   <g id="patch_5">
    <path d="M 249.470359 388.6 
L 265.352737 388.6 
L 265.352737 155.508797 
L 249.470359 155.508797 
z
" clip-path="url(#pf7cbd8b87a)" style="fill: #1f77b4"/>
   </g>
   <g id="patch_6">
    <path d="M 355.352882 388.6 
L 371.23526 388.6 
L 371.23526 136.084531 
L 355.352882 136.084531 
z
" clip-path="url(#pf7cbd8b87a)" style="fill: #1f77b4"/>
   </g>
   <g id="patch_7">
    <path d="M 53.587691 388.6 
L 69.470069 388.6 
L 69.470069 233.205865 
L 53.587691 233.205865 
z
" clip-path="url(#pf7cbd8b87a)" style="fill: #ff7f0e"/>
   </g>
   <g id="patch_8">
    <path d="M 159.470214 388.6 
L 175.352593 388.6 
L 175.352593 233.205865 
L 159.470214 233.205865 
z
" clip-path="url(#pf7cbd8b87a)" style="fill: #ff7f0e"/>
   </g>
   <g id="patch_9">
    <path d="M 265.352737 388.6 
L 281.235116 388.6 
L 281.235116 155.508797 
L 265.352737 155.508797 
z
" clip-path="url(#pf7cbd8b87a)" style="fill: #ff7f0e"/>
   </g>
   <g id="patch_10">
    <path d="M 371.23526 388.6 
L 387.117639 388.6 
L 387.117639 194.357331 
L 371.23526 194.357331 
z
" clip-path="url(#pf7cbd8b87a)" style="fill: #ff7f0e"/>
   </g>
   <g id="patch_11">
    <path d="M 69.470069 388.6 
L 85.352448 388.6 
L 85.352448 96.459026 
L 69.470069 96.459026 
z
" clip-path="url(#pf7cbd8b87a)" style="fill: #2ca02c"/>
   </g>
   <g id="patch_12">
    <path d="M 175.352593 388.6 
L 191.234971 388.6 
L 191.234971 77.81173 
L 175.352593 77.81173 
z
" clip-path="url(#pf7cbd8b87a)" style="fill: #2ca02c"/>
   </g>
   <g id="patch_13">
    <path d="M 281.235116 388.6 
L 297.117494 388.6 
L 297.117494 103.451762 
L 281.235116 103.451762 
z
" clip-path="url(#pf7cbd8b87a)" style="fill: #2ca02c"/>
   </g>
   <g id="patch_14">
    <path d="M 387.117639 388.6 
L 403.000017 388.6 
L 403.000017 77.81173 
L 387.117639 77.81173 
z
" clip-path="url(#pf7cbd8b87a)" style="fill: #2ca02c"/>
   </g>
   <g id="patch_15">
    <path d="M 85.352448 388.6 
L 101.234826 388.6 
L 101.234826 160.947592 
L 85.352448 160.947592 
z
" clip-path="url(#pf7cbd8b87a)" style="fill: #d62728"/>
   </g>
   <g id="patch_16">
    <path d="M 191.234971 388.6 
L 207.11735 388.6 
L 207.11735 143.854237 
L 191.234971 143.854237 
z
" clip-path="url(#pf7cbd8b87a)" style="fill: #d62728"/>
   </g>
   <g id="patch_17">
    <path d="M 297.117494 388.6 
L 312.999873 388.6 
L 312.999873 174.933064 
L 297.117494 174.933064 
z
" clip-path="url(#pf7cbd8b87a)" style="fill: #d62728"/>
   </g>
   <g id="patch_18">
    <path d="M 403.000017 388.6 
L 418.882396 388.6 
L 418.882396 136.084531 
L 403.000017 136.084531 
z
" clip-path="url(#pf7cbd8b87a)" style="fill: #d62728"/>
   </g>
   <g id="matplotlib.axis_1">
    <g id="xtick_1">
     <g id="line2d_1">
      <defs>
       <path id="m4fbeff9158" d="M 0 0 
L 0 3.5 
" style="stroke: #000000; stroke-width: 0.8"/>
      </defs>
      <g>
       <use xlink:href="#m4fbeff9158" x="61.52888" y="388.6" style="stroke: #000000; stroke-width: 0.8"/>
      </g>
     </g>
    </g>
    <g id="xtick_2">
     <g id="line2d_2">
      <g>
       <use xlink:href="#m4fbeff9158" x="167.411403" y="388.6" style="stroke: #000000; stroke-width: 0.8"/>
      </g>
     </g>
    </g>
    <g id="xtick_3">
     <g id="line2d_3">
      <g>
       <use xlink:href="#m4fbeff9158" x="273.293927" y="388.6" style="stroke: #000000; stroke-width: 0.8"/>
      </g>
     </g>
    </g>
    <g id="xtick_4">
     <g id="line2d_4">
      <g>
       <use xlink:href="#m4fbeff9158" x="379.17645" y="388.6" style="stroke: #000000; stroke-width: 0.8"/>
      </g>
     </g>
    </g>
   </g>
   <g id="matplotlib.axis_2">
    <g id="ytick_1">
     <g id="line2d_5">
      <defs>
       <path id="mcceadf31b3" d="M 0 0 
L -3.5 0 
" style="stroke: #000000; stroke-width: 0.8"/>
      </defs>
      <g>
       <use xlink:href="#mcceadf31b3" x="18.646458" y="388.6" style="stroke: #000000; stroke-width: 0.8"/>
      </g>
     </g>
     <g id="text_1">
      <!-- 0 -->
      <g transform="translate(5.283958 392.399219) scale(0.1 -0.1)">
       <defs>
        <path id="DejaVuSans-30" d="M 2034 4250 
Q 1547 4250 1301 3770 
Q 1056 3291 1056 2328 
Q 1056 1369 1301 889 
Q 1547 409 2034 409 
Q 2525 409 2770 889 
Q 3016 1369 3016 2328 
Q 3016 3291 2770 3770 
Q 2525 4250 2034 4250 
z
M 2034 4750 
Q 2819 4750 3233 4129 
Q 3647 3509 3647 2328 
Q 3647 1150 3233 529 
Q 2819 -91 2034 -91 
Q 1250 -91 836 529 
Q 422 1150 422 2328 
Q 422 3509 836 4129 
Q 1250 4750 2034 4750 
z
" transform="scale(0.015625)"/>
       </defs>
       <use xlink:href="#DejaVuSans-30"/>
      </g>
     </g>
    </g>
    <g id="ytick_2">
     <g id="line2d_6">
      <g>
       <use xlink:href="#mcceadf31b3" x="18.646458" y="310.902932" style="stroke: #000000; stroke-width: 0.8"/>
      </g>
     </g>
     <g id="text_2">
      <!-- 1 -->
      <g transform="translate(5.283958 314.702151) scale(0.1 -0.1)">
       <defs>
        <path id="DejaVuSans-31" d="M 794 531 
L 1825 531 
L 1825 4091 
L 703 3866 
L 703 4441 
L 1819 4666 
L 2450 4666 
L 2450 531 
L 3481 531 
L 3481 0 
L 794 0 
L 794 531 
z
" transform="scale(0.015625)"/>
       </defs>
       <use xlink:href="#DejaVuSans-31"/>
      </g>
     </g>
    </g>
    <g id="ytick_3">
     <g id="line2d_7">
      <g>
       <use xlink:href="#mcceadf31b3" x="18.646458" y="233.205865" style="stroke: #000000; stroke-width: 0.8"/>
      </g>
     </g>
     <g id="text_3">
      <!-- 2 -->
      <g transform="translate(5.283958 237.005084) scale(0.1 -0.1)">
       <defs>
        <path id="DejaVuSans-32" d="M 1228 531 
L 3431 531 
L 3431 0 
L 469 0 
L 469 531 
Q 828 903 1448 1529 
Q 2069 2156 2228 2338 
Q 2531 2678 2651 2914 
Q 2772 3150 2772 3378 
Q 2772 3750 2511 3984 
Q 2250 4219 1831 4219 
Q 1534 4219 1204 4116 
Q 875 4013 500 3803 
L 500 4441 
Q 881 4594 1212 4672 
Q 1544 4750 1819 4750 
Q 2544 4750 2975 4387 
Q 3406 4025 3406 3419 
Q 3406 3131 3298 2873 
Q 3191 2616 2906 2266 
Q 2828 2175 2409 1742 
Q 1991 1309 1228 531 
z
" transform="scale(0.015625)"/>
       </defs>
       <use xlink:href="#DejaVuSans-32"/>
      </g>
     </g>
    </g>
    <g id="ytick_4">
     <g id="line2d_8">
      <g>
       <use xlink:href="#mcceadf31b3" x="18.646458" y="155.508797" style="stroke: #000000; stroke-width: 0.8"/>
      </g>
     </g>
     <g id="text_4">
      <!-- 3 -->
      <g transform="translate(5.283958 159.308016) scale(0.1 -0.1)">
       <defs>
        <path id="DejaVuSans-33" d="M 2597 2516 
Q 3050 2419 3304 2112 
Q 3559 1806 3559 1356 
Q 3559 666 3084 287 
Q 2609 -91 1734 -91 
Q 1441 -91 1130 -33 
Q 819 25 488 141 
L 488 750 
Q 750 597 1062 519 
Q 1375 441 1716 441 
Q 2309 441 2620 675 
Q 2931 909 2931 1356 
Q 2931 1769 2642 2001 
Q 2353 2234 1838 2234 
L 1294 2234 
L 1294 2753 
L 1863 2753 
Q 2328 2753 2575 2939 
Q 2822 3125 2822 3475 
Q 2822 3834 2567 4026 
Q 2313 4219 1838 4219 
Q 1578 4219 1281 4162 
Q 984 4106 628 3988 
L 628 4550 
Q 988 4650 1302 4700 
Q 1616 4750 1894 4750 
Q 2613 4750 3031 4423 
Q 3450 4097 3450 3541 
Q 3450 3153 3228 2886 
Q 3006 2619 2597 2516 
z
" transform="scale(0.015625)"/>
       </defs>
       <use xlink:href="#DejaVuSans-33"/>
      </g>
     </g>
    </g>
    <g id="ytick_5">
     <g id="line2d_9">
      <g>
       <use xlink:href="#mcceadf31b3" x="18.646458" y="77.81173" style="stroke: #000000; stroke-width: 0.8"/>
      </g>
     </g>
     <g id="text_5">
      <!-- 4 -->
      <g transform="translate(5.283958 81.610949) scale(0.1 -0.1)">
       <defs>
        <path id="DejaVuSans-34" d="M 2419 4116 
L 825 1625 
L 2419 1625 
L 2419 4116 
z
M 2253 4666 
L 3047 4666 
L 3047 1625 
L 3713 1625 
L 3713 1100 
L 3047 1100 
L 3047 0 
L 2419 0 
L 2419 1100 
L 313 1100 
L 313 1709 
L 2253 4666 
z
" transform="scale(0.015625)"/>
       </defs>
       <use xlink:href="#DejaVuSans-34"/>
      </g>
     </g>
    </g>
   </g>
   <g id="LineCollection_1">
    <path d="M 45.646502 213.781598 
L 45.646502 174.933064 
" clip-path="url(#pf7cbd8b87a)" style="fill: none; stroke: #000000; stroke-width: 1.5"/>
    <path d="M 151.529025 207.177347 
L 151.529025 155.120312 
" clip-path="url(#pf7cbd8b87a)" style="fill: none; stroke: #000000; stroke-width: 1.5"/>
    <path d="M 257.411548 155.508797 
L 257.411548 155.508797 
" clip-path="url(#pf7cbd8b87a)" style="fill: none; stroke: #000000; stroke-width: 1.5"/>
    <path d="M 363.294071 165.220931 
L 363.294071 106.94813 
" clip-path="url(#pf7cbd8b87a)" style="fill: none; stroke: #000000; stroke-width: 1.5"/>
   </g>
   <g id="line2d_10">
    <defs>
     <path id="m55272283b5" d="M 5 0 
L -5 -0 
" style="stroke: #000000"/>
    </defs>
    <g clip-path="url(#pf7cbd8b87a)">
     <use xlink:href="#m55272283b5" x="45.646502" y="213.781598" style="stroke: #000000"/>
     <use xlink:href="#m55272283b5" x="151.529025" y="207.177347" style="stroke: #000000"/>
     <use xlink:href="#m55272283b5" x="257.411548" y="155.508797" style="stroke: #000000"/>
     <use xlink:href="#m55272283b5" x="363.294071" y="165.220931" style="stroke: #000000"/>
    </g>
   </g>
   <g id="line2d_11">
    <g clip-path="url(#pf7cbd8b87a)">
     <use xlink:href="#m55272283b5" x="45.646502" y="174.933064" style="stroke: #000000"/>
     <use xlink:href="#m55272283b5" x="151.529025" y="155.120312" style="stroke: #000000"/>
     <use xlink:href="#m55272283b5" x="257.411548" y="155.508797" style="stroke: #000000"/>
     <use xlink:href="#m55272283b5" x="363.294071" y="106.94813" style="stroke: #000000"/>
    </g>
   </g>
   <g id="LineCollection_2">
    <path d="M 61.52888 252.630132 
L 61.52888 213.781598 
" clip-path="url(#pf7cbd8b87a)" style="fill: none; stroke: #000000; stroke-width: 1.5"/>
    <path d="M 167.411403 259.234383 
L 167.411403 207.177347 
" clip-path="url(#pf7cbd8b87a)" style="fill: none; stroke: #000000; stroke-width: 1.5"/>
    <path d="M 273.293927 155.508797 
L 273.293927 155.508797 
" clip-path="url(#pf7cbd8b87a)" style="fill: none; stroke: #000000; stroke-width: 1.5"/>
    <path d="M 379.17645 223.493732 
L 379.17645 165.220931 
" clip-path="url(#pf7cbd8b87a)" style="fill: none; stroke: #000000; stroke-width: 1.5"/>
   </g>
   <g id="line2d_12">
    <g clip-path="url(#pf7cbd8b87a)">
     <use xlink:href="#m55272283b5" x="61.52888" y="252.630132" style="stroke: #000000"/>
     <use xlink:href="#m55272283b5" x="167.411403" y="259.234383" style="stroke: #000000"/>
     <use xlink:href="#m55272283b5" x="273.293927" y="155.508797" style="stroke: #000000"/>
     <use xlink:href="#m55272283b5" x="379.17645" y="223.493732" style="stroke: #000000"/>
    </g>
   </g>
   <g id="line2d_13">
    <g clip-path="url(#pf7cbd8b87a)">
     <use xlink:href="#m55272283b5" x="61.52888" y="213.781598" style="stroke: #000000"/>
     <use xlink:href="#m55272283b5" x="167.411403" y="207.177347" style="stroke: #000000"/>
     <use xlink:href="#m55272283b5" x="273.293927" y="155.508797" style="stroke: #000000"/>
     <use xlink:href="#m55272283b5" x="379.17645" y="165.220931" style="stroke: #000000"/>
    </g>
   </g>
   <g id="LineCollection_3">
    <path d="M 77.411259 128.703309 
L 77.411259 64.214743 
" clip-path="url(#pf7cbd8b87a)" style="fill: none; stroke: #000000; stroke-width: 1.5"/>
    <path d="M 183.293782 110.832984 
L 183.293782 44.790476 
" clip-path="url(#pf7cbd8b87a)" style="fill: none; stroke: #000000; stroke-width: 1.5"/>
    <path d="M 289.176305 139.192413 
L 289.176305 67.711111 
" clip-path="url(#pf7cbd8b87a)" style="fill: none; stroke: #000000; stroke-width: 1.5"/>
    <path d="M 395.058828 106.94813 
L 395.058828 48.67533 
" clip-path="url(#pf7cbd8b87a)" style="fill: none; stroke: #000000; stroke-width: 1.5"/>
   </g>
   <g id="line2d_14">
    <g clip-path="url(#pf7cbd8b87a)">
     <use xlink:href="#m55272283b5" x="77.411259" y="128.703309" style="stroke: #000000"/>
     <use xlink:href="#m55272283b5" x="183.293782" y="110.832984" style="stroke: #000000"/>
     <use xlink:href="#m55272283b5" x="289.176305" y="139.192413" style="stroke: #000000"/>
     <use xlink:href="#m55272283b5" x="395.058828" y="106.94813" style="stroke: #000000"/>
    </g>
   </g>
   <g id="line2d_15">
    <g clip-path="url(#pf7cbd8b87a)">
     <use xlink:href="#m55272283b5" x="77.411259" y="64.214743" style="stroke: #000000"/>
     <use xlink:href="#m55272283b5" x="183.293782" y="44.790476" style="stroke: #000000"/>
     <use xlink:href="#m55272283b5" x="289.176305" y="67.711111" style="stroke: #000000"/>
     <use xlink:href="#m55272283b5" x="395.058828" y="48.67533" style="stroke: #000000"/>
    </g>
   </g>
   <g id="LineCollection_4">
    <path d="M 93.293637 193.191875 
L 93.293637 128.703309 
" clip-path="url(#pf7cbd8b87a)" style="fill: none; stroke: #000000; stroke-width: 1.5"/>
    <path d="M 199.17616 176.875491 
L 199.17616 110.832984 
" clip-path="url(#pf7cbd8b87a)" style="fill: none; stroke: #000000; stroke-width: 1.5"/>
    <path d="M 305.058683 210.673715 
L 305.058683 139.192413 
" clip-path="url(#pf7cbd8b87a)" style="fill: none; stroke: #000000; stroke-width: 1.5"/>
    <path d="M 410.941207 165.220931 
L 410.941207 106.94813 
" clip-path="url(#pf7cbd8b87a)" style="fill: none; stroke: #000000; stroke-width: 1.5"/>
   </g>
   <g id="line2d_16">
    <g clip-path="url(#pf7cbd8b87a)">
     <use xlink:href="#m55272283b5" x="93.293637" y="193.191875" style="stroke: #000000"/>
     <use xlink:href="#m55272283b5" x="199.17616" y="176.875491" style="stroke: #000000"/>
     <use xlink:href="#m55272283b5" x="305.058683" y="210.673715" style="stroke: #000000"/>
     <use xlink:href="#m55272283b5" x="410.941207" y="165.220931" style="stroke: #000000"/>
    </g>
   </g>
   <g id="line2d_17">
    <g clip-path="url(#pf7cbd8b87a)">
     <use xlink:href="#m55272283b5" x="93.293637" y="128.703309" style="stroke: #000000"/>
     <use xlink:href="#m55272283b5" x="199.17616" y="110.832984" style="stroke: #000000"/>
     <use xlink:href="#m55272283b5" x="305.058683" y="139.192413" style="stroke: #000000"/>
     <use xlink:href="#m55272283b5" x="410.941207" y="106.94813" style="stroke: #000000"/>
    </g>
   </g>
   <g id="patch_19">
    <path d="M 18.646458 388.6 
L 18.646458 27.6 
" style="fill: none; stroke: #000000; stroke-width: 0.8; stroke-linejoin: miter; stroke-linecap: square"/>
   </g>
   <g id="patch_20">
    <path d="M 437.94125 388.6 
L 437.94125 27.6 
" style="fill: none; stroke: #000000; stroke-width: 0.8; stroke-linejoin: miter; stroke-linecap: square"/>
   </g>
   <g id="patch_21">
    <path d="M 18.646458 388.6 
L 437.94125 388.6 
" style="fill: none; stroke: #000000; stroke-width: 0.8; stroke-linejoin: miter; stroke-linecap: square"/>
   </g>
   <g id="patch_22">
    <path d="M 18.646458 27.6 
L 437.94125 27.6 
" style="fill: none; stroke: #000000; stroke-width: 0.8; stroke-linejoin: miter; stroke-linecap: square"/>
   </g>
   <g id="text_6">
    <!-- Average Moves -->
    <g transform="translate(168.195573 21.6) scale(0.14 -0.14)">
     <defs>
      <path id="DejaVuSans-Bold-41" d="M 3419 850 
L 1538 850 
L 1241 0 
L 31 0 
L 1759 4666 
L 3194 4666 
L 4922 0 
L 3713 0 
L 3419 850 
z
M 1838 1716 
L 3116 1716 
L 2478 3572 
L 1838 1716 
z
" transform="scale(0.015625)"/>
      <path id="DejaVuSans-Bold-76" d="M 97 3500 
L 1216 3500 
L 2088 1081 
L 2956 3500 
L 4078 3500 
L 2700 0 
L 1472 0 
L 97 3500 
z
" transform="scale(0.015625)"/>
      <path id="DejaVuSans-Bold-65" d="M 4031 1759 
L 4031 1441 
L 1416 1441 
Q 1456 1047 1700 850 
Q 1944 653 2381 653 
Q 2734 653 3104 758 
Q 3475 863 3866 1075 
L 3866 213 
Q 3469 63 3072 -14 
Q 2675 -91 2278 -91 
Q 1328 -91 801 392 
Q 275 875 275 1747 
Q 275 2603 792 3093 
Q 1309 3584 2216 3584 
Q 3041 3584 3536 3087 
Q 4031 2591 4031 1759 
z
M 2881 2131 
Q 2881 2450 2695 2645 
Q 2509 2841 2209 2841 
Q 1884 2841 1681 2658 
Q 1478 2475 1428 2131 
L 2881 2131 
z
" transform="scale(0.015625)"/>
      <path id="DejaVuSans-Bold-72" d="M 3138 2547 
Q 2991 2616 2845 2648 
Q 2700 2681 2553 2681 
Q 2122 2681 1889 2404 
Q 1656 2128 1656 1613 
L 1656 0 
L 538 0 
L 538 3500 
L 1656 3500 
L 1656 2925 
Q 1872 3269 2151 3426 
Q 2431 3584 2822 3584 
Q 2878 3584 2943 3579 
Q 3009 3575 3134 3559 
L 3138 2547 
z
" transform="scale(0.015625)"/>
      <path id="DejaVuSans-Bold-61" d="M 2106 1575 
Q 1756 1575 1579 1456 
Q 1403 1338 1403 1106 
Q 1403 894 1545 773 
Q 1688 653 1941 653 
Q 2256 653 2472 879 
Q 2688 1106 2688 1447 
L 2688 1575 
L 2106 1575 
z
M 3816 1997 
L 3816 0 
L 2688 0 
L 2688 519 
Q 2463 200 2181 54 
Q 1900 -91 1497 -91 
Q 953 -91 614 226 
Q 275 544 275 1050 
Q 275 1666 698 1953 
Q 1122 2241 2028 2241 
L 2688 2241 
L 2688 2328 
Q 2688 2594 2478 2717 
Q 2269 2841 1825 2841 
Q 1466 2841 1156 2769 
Q 847 2697 581 2553 
L 581 3406 
Q 941 3494 1303 3539 
Q 1666 3584 2028 3584 
Q 2975 3584 3395 3211 
Q 3816 2838 3816 1997 
z
" transform="scale(0.015625)"/>
      <path id="DejaVuSans-Bold-67" d="M 2919 594 
Q 2688 288 2409 144 
Q 2131 0 1766 0 
Q 1125 0 706 504 
Q 288 1009 288 1791 
Q 288 2575 706 3076 
Q 1125 3578 1766 3578 
Q 2131 3578 2409 3434 
Q 2688 3291 2919 2981 
L 2919 3500 
L 4044 3500 
L 4044 353 
Q 4044 -491 3511 -936 
Q 2978 -1381 1966 -1381 
Q 1638 -1381 1331 -1331 
Q 1025 -1281 716 -1178 
L 716 -306 
Q 1009 -475 1290 -558 
Q 1572 -641 1856 -641 
Q 2406 -641 2662 -400 
Q 2919 -159 2919 353 
L 2919 594 
z
M 2181 2772 
Q 1834 2772 1640 2515 
Q 1447 2259 1447 1791 
Q 1447 1309 1634 1061 
Q 1822 813 2181 813 
Q 2531 813 2725 1069 
Q 2919 1325 2919 1791 
Q 2919 2259 2725 2515 
Q 2531 2772 2181 2772 
z
" transform="scale(0.015625)"/>
      <path id="DejaVuSans-Bold-20" transform="scale(0.015625)"/>
      <path id="DejaVuSans-Bold-4d" d="M 588 4666 
L 2119 4666 
L 3181 2169 
L 4250 4666 
L 5778 4666 
L 5778 0 
L 4641 0 
L 4641 3413 
L 3566 897 
L 2803 897 
L 1728 3413 
L 1728 0 
L 588 0 
L 588 4666 
z
" transform="scale(0.015625)"/>
      <path id="DejaVuSans-Bold-6f" d="M 2203 2784 
Q 1831 2784 1636 2517 
Q 1441 2250 1441 1747 
Q 1441 1244 1636 976 
Q 1831 709 2203 709 
Q 2569 709 2762 976 
Q 2956 1244 2956 1747 
Q 2956 2250 2762 2517 
Q 2569 2784 2203 2784 
z
M 2203 3584 
Q 3106 3584 3614 3096 
Q 4122 2609 4122 1747 
Q 4122 884 3614 396 
Q 3106 -91 2203 -91 
Q 1297 -91 786 396 
Q 275 884 275 1747 
Q 275 2609 786 3096 
Q 1297 3584 2203 3584 
z
" transform="scale(0.015625)"/>
      <path id="DejaVuSans-Bold-73" d="M 3272 3391 
L 3272 2541 
Q 2913 2691 2578 2766 
Q 2244 2841 1947 2841 
Q 1628 2841 1473 2761 
Q 1319 2681 1319 2516 
Q 1319 2381 1436 2309 
Q 1553 2238 1856 2203 
L 2053 2175 
Q 2913 2066 3209 1816 
Q 3506 1566 3506 1031 
Q 3506 472 3093 190 
Q 2681 -91 1863 -91 
Q 1516 -91 1145 -36 
Q 775 19 384 128 
L 384 978 
Q 719 816 1070 734 
Q 1422 653 1784 653 
Q 2113 653 2278 743 
Q 2444 834 2444 1013 
Q 2444 1163 2330 1236 
Q 2216 1309 1875 1350 
L 1678 1375 
Q 931 1469 631 1722 
Q 331 1975 331 2491 
Q 331 3047 712 3315 
Q 1094 3584 1881 3584 
Q 2191 3584 2531 3537 
Q 2872 3491 3272 3391 
z
" transform="scale(0.015625)"/>
     </defs>
     <use xlink:href="#DejaVuSans-Bold-41"/>
     <use xlink:href="#DejaVuSans-Bold-76" x="73.767578"/>
     <use xlink:href="#DejaVuSans-Bold-65" x="138.953125"/>
     <use xlink:href="#DejaVuSans-Bold-72" x="206.775391"/>
     <use xlink:href="#DejaVuSans-Bold-61" x="256.091797"/>
     <use xlink:href="#DejaVuSans-Bold-67" x="323.572266"/>
     <use xlink:href="#DejaVuSans-Bold-65" x="395.154297"/>
     <use xlink:href="#DejaVuSans-Bold-20" x="462.976562"/>
     <use xlink:href="#DejaVuSans-Bold-4d" x="497.791016"/>
     <use xlink:href="#DejaVuSans-Bold-6f" x="597.302734"/>
     <use xlink:href="#DejaVuSans-Bold-76" x="666.003906"/>
     <use xlink:href="#DejaVuSans-Bold-65" x="731.189453"/>
     <use xlink:href="#DejaVuSans-Bold-73" x="799.011719"/>
    </g>
   </g>
  </g>
  <g id="axes_2">
   <g id="patch_23">
    <path d="M 461.513333 388.6 
L 880.808125 388.6 
L 880.808125 27.6 
L 461.513333 27.6 
z
" style="fill: #ffffff"/>
   </g>
   <g id="patch_24">
    <path d="M 480.572188 388.6 
L 496.454566 388.6 
L 496.454566 388.6 
L 480.572188 388.6 
z
" clip-path="url(#p4043a47a39)" style="fill: #1f77b4"/>
   </g>
   <g id="patch_25">
    <path d="M 586.454711 388.6 
L 602.337089 388.6 
L 602.337089 388.6 
L 586.454711 388.6 
z
" clip-path="url(#p4043a47a39)" style="fill: #1f77b4"/>
   </g>
   <g id="patch_26">
    <path d="M 692.337234 388.6 
L 708.219612 388.6 
L 708.219612 388.6 
L 692.337234 388.6 
z
" clip-path="url(#p4043a47a39)" style="fill: #1f77b4"/>
   </g>
   <g id="patch_27">
    <path d="M 798.219757 388.6 
L 814.102135 388.6 
L 814.102135 377.685412 
L 798.219757 377.685412 
z
" clip-path="url(#p4043a47a39)" style="fill: #1f77b4"/>
   </g>
   <g id="patch_28">
    <path d="M 496.454566 388.6 
L 512.336944 388.6 
L 512.336944 388.6 
L 496.454566 388.6 
z
" clip-path="url(#p4043a47a39)" style="fill: #ff7f0e"/>
   </g>
   <g id="patch_29">
    <path d="M 602.337089 388.6 
L 618.219468 388.6 
L 618.219468 388.6 
L 602.337089 388.6 
z
" clip-path="url(#p4043a47a39)" style="fill: #ff7f0e"/>
   </g>
   <g id="patch_30">
    <path d="M 708.219612 388.6 
L 724.101991 388.6 
L 724.101991 388.6 
L 708.219612 388.6 
z
" clip-path="url(#p4043a47a39)" style="fill: #ff7f0e"/>
   </g>
   <g id="patch_31">
    <path d="M 814.102135 388.6 
L 829.984514 388.6 
L 829.984514 388.6 
L 814.102135 388.6 
z
" clip-path="url(#p4043a47a39)" style="fill: #ff7f0e"/>
   </g>
   <g id="patch_32">
    <path d="M 512.336944 388.6 
L 528.219323 388.6 
L 528.219323 137.564475 
L 512.336944 137.564475 
z
" clip-path="url(#p4043a47a39)" style="fill: #2ca02c"/>
   </g>
   <g id="patch_33">
    <path d="M 618.219468 388.6 
L 634.101846 388.6 
L 634.101846 301.283296 
L 618.219468 301.283296 
z
" clip-path="url(#p4043a47a39)" style="fill: #2ca02c"/>
   </g>
   <g id="patch_34">
    <path d="M 724.101991 388.6 
L 739.984369 388.6 
L 739.984369 312.197884 
L 724.101991 312.197884 
z
" clip-path="url(#p4043a47a39)" style="fill: #2ca02c"/>
   </g>
   <g id="patch_35">
    <path d="M 829.984514 388.6 
L 845.866892 388.6 
L 845.866892 355.856236 
L 829.984514 355.856236 
z
" clip-path="url(#p4043a47a39)" style="fill: #2ca02c"/>
   </g>
   <g id="patch_36">
    <path d="M 528.219323 388.6 
L 544.101701 388.6 
L 544.101701 323.112472 
L 528.219323 323.112472 
z
" clip-path="url(#p4043a47a39)" style="fill: #d62728"/>
   </g>
   <g id="patch_37">
    <path d="M 634.101846 388.6 
L 649.984225 388.6 
L 649.984225 355.856236 
L 634.101846 355.856236 
z
" clip-path="url(#p4043a47a39)" style="fill: #d62728"/>
   </g>
   <g id="patch_38">
    <path d="M 739.984369 388.6 
L 755.866748 388.6 
L 755.866748 366.770824 
L 739.984369 366.770824 
z
" clip-path="url(#p4043a47a39)" style="fill: #d62728"/>
   </g>
   <g id="patch_39">
    <path d="M 845.866892 388.6 
L 861.749271 388.6 
L 861.749271 377.685412 
L 845.866892 377.685412 
z
" clip-path="url(#p4043a47a39)" style="fill: #d62728"/>
   </g>
   <g id="matplotlib.axis_3">
    <g id="xtick_5">
     <g id="line2d_18">
      <g>
       <use xlink:href="#m4fbeff9158" x="504.395755" y="388.6" style="stroke: #000000; stroke-width: 0.8"/>
      </g>
     </g>
     <g id="text_7">
      <!-- 0 -->
      <g transform="translate(500.221068 404.718125) scale(0.12 -0.12)">
       <defs>
        <path id="DejaVuSans-Bold-30" d="M 2944 2338 
Q 2944 3213 2780 3570 
Q 2616 3928 2228 3928 
Q 1841 3928 1675 3570 
Q 1509 3213 1509 2338 
Q 1509 1453 1675 1090 
Q 1841 728 2228 728 
Q 2613 728 2778 1090 
Q 2944 1453 2944 2338 
z
M 4147 2328 
Q 4147 1169 3647 539 
Q 3147 -91 2228 -91 
Q 1306 -91 806 539 
Q 306 1169 306 2328 
Q 306 3491 806 4120 
Q 1306 4750 2228 4750 
Q 3147 4750 3647 4120 
Q 4147 3491 4147 2328 
z
" transform="scale(0.015625)"/>
       </defs>
       <use xlink:href="#DejaVuSans-Bold-30"/>
      </g>
     </g>
    </g>
    <g id="xtick_6">
     <g id="line2d_19">
      <g>
       <use xlink:href="#m4fbeff9158" x="610.278278" y="388.6" style="stroke: #000000; stroke-width: 0.8"/>
      </g>
     </g>
     <g id="text_8">
      <!-- 0.5 -->
      <g transform="translate(599.649841 404.718125) scale(0.12 -0.12)">
       <defs>
        <path id="DejaVuSans-Bold-2e" d="M 653 1209 
L 1778 1209 
L 1778 0 
L 653 0 
L 653 1209 
z
" transform="scale(0.015625)"/>
        <path id="DejaVuSans-Bold-35" d="M 678 4666 
L 3669 4666 
L 3669 3781 
L 1638 3781 
L 1638 3059 
Q 1775 3097 1914 3117 
Q 2053 3138 2203 3138 
Q 3056 3138 3531 2711 
Q 4006 2284 4006 1522 
Q 4006 766 3489 337 
Q 2972 -91 2053 -91 
Q 1656 -91 1267 -14 
Q 878 63 494 219 
L 494 1166 
Q 875 947 1217 837 
Q 1559 728 1863 728 
Q 2300 728 2551 942 
Q 2803 1156 2803 1522 
Q 2803 1891 2551 2103 
Q 2300 2316 1863 2316 
Q 1603 2316 1309 2248 
Q 1016 2181 678 2041 
L 678 4666 
z
" transform="scale(0.015625)"/>
       </defs>
       <use xlink:href="#DejaVuSans-Bold-30"/>
       <use xlink:href="#DejaVuSans-Bold-2e" x="69.580078"/>
       <use xlink:href="#DejaVuSans-Bold-35" x="107.568359"/>
      </g>
     </g>
    </g>
    <g id="xtick_7">
     <g id="line2d_20">
      <g>
       <use xlink:href="#m4fbeff9158" x="716.160802" y="388.6" style="stroke: #000000; stroke-width: 0.8"/>
      </g>
     </g>
     <g id="text_9">
      <!-- 1 -->
      <g transform="translate(711.986114 404.718125) scale(0.12 -0.12)">
       <defs>
        <path id="DejaVuSans-Bold-31" d="M 750 831 
L 1813 831 
L 1813 3847 
L 722 3622 
L 722 4441 
L 1806 4666 
L 2950 4666 
L 2950 831 
L 4013 831 
L 4013 0 
L 750 0 
L 750 831 
z
" transform="scale(0.015625)"/>
       </defs>
       <use xlink:href="#DejaVuSans-Bold-31"/>
      </g>
     </g>
    </g>
    <g id="xtick_8">
     <g id="line2d_21">
      <g>
       <use xlink:href="#m4fbeff9158" x="822.043325" y="388.6" style="stroke: #000000; stroke-width: 0.8"/>
      </g>
     </g>
     <g id="text_10">
      <!-- 1.5 -->
      <g transform="translate(811.414887 404.718125) scale(0.12 -0.12)">
       <use xlink:href="#DejaVuSans-Bold-31"/>
       <use xlink:href="#DejaVuSans-Bold-2e" x="69.580078"/>
       <use xlink:href="#DejaVuSans-Bold-35" x="107.568359"/>
      </g>
     </g>
    </g>
    <g id="text_11">
     <!-- Temperature -->
     <g transform="translate(628.001042 420.331875) scale(0.12 -0.12)">
      <defs>
       <path id="DejaVuSans-Bold-54" d="M 31 4666 
L 4331 4666 
L 4331 3756 
L 2784 3756 
L 2784 0 
L 1581 0 
L 1581 3756 
L 31 3756 
L 31 4666 
z
" transform="scale(0.015625)"/>
       <path id="DejaVuSans-Bold-6d" d="M 3781 2919 
Q 3994 3244 4286 3414 
Q 4578 3584 4928 3584 
Q 5531 3584 5847 3212 
Q 6163 2841 6163 2131 
L 6163 0 
L 5038 0 
L 5038 1825 
Q 5041 1866 5042 1909 
Q 5044 1953 5044 2034 
Q 5044 2406 4934 2573 
Q 4825 2741 4581 2741 
Q 4263 2741 4089 2478 
Q 3916 2216 3909 1719 
L 3909 0 
L 2784 0 
L 2784 1825 
Q 2784 2406 2684 2573 
Q 2584 2741 2328 2741 
Q 2006 2741 1831 2477 
Q 1656 2213 1656 1722 
L 1656 0 
L 531 0 
L 531 3500 
L 1656 3500 
L 1656 2988 
Q 1863 3284 2130 3434 
Q 2397 3584 2719 3584 
Q 3081 3584 3359 3409 
Q 3638 3234 3781 2919 
z
" transform="scale(0.015625)"/>
       <path id="DejaVuSans-Bold-70" d="M 1656 506 
L 1656 -1331 
L 538 -1331 
L 538 3500 
L 1656 3500 
L 1656 2988 
Q 1888 3294 2169 3439 
Q 2450 3584 2816 3584 
Q 3463 3584 3878 3070 
Q 4294 2556 4294 1747 
Q 4294 938 3878 423 
Q 3463 -91 2816 -91 
Q 2450 -91 2169 54 
Q 1888 200 1656 506 
z
M 2400 2772 
Q 2041 2772 1848 2508 
Q 1656 2244 1656 1747 
Q 1656 1250 1848 986 
Q 2041 722 2400 722 
Q 2759 722 2948 984 
Q 3138 1247 3138 1747 
Q 3138 2247 2948 2509 
Q 2759 2772 2400 2772 
z
" transform="scale(0.015625)"/>
       <path id="DejaVuSans-Bold-74" d="M 1759 4494 
L 1759 3500 
L 2913 3500 
L 2913 2700 
L 1759 2700 
L 1759 1216 
Q 1759 972 1856 886 
Q 1953 800 2241 800 
L 2816 800 
L 2816 0 
L 1856 0 
Q 1194 0 917 276 
Q 641 553 641 1216 
L 641 2700 
L 84 2700 
L 84 3500 
L 641 3500 
L 641 4494 
L 1759 4494 
z
" transform="scale(0.015625)"/>
       <path id="DejaVuSans-Bold-75" d="M 500 1363 
L 500 3500 
L 1625 3500 
L 1625 3150 
Q 1625 2866 1622 2436 
Q 1619 2006 1619 1863 
Q 1619 1441 1641 1255 
Q 1663 1069 1716 984 
Q 1784 875 1895 815 
Q 2006 756 2150 756 
Q 2500 756 2700 1025 
Q 2900 1294 2900 1772 
L 2900 3500 
L 4019 3500 
L 4019 0 
L 2900 0 
L 2900 506 
Q 2647 200 2364 54 
Q 2081 -91 1741 -91 
Q 1134 -91 817 281 
Q 500 653 500 1363 
z
" transform="scale(0.015625)"/>
      </defs>
      <use xlink:href="#DejaVuSans-Bold-54"/>
      <use xlink:href="#DejaVuSans-Bold-65" x="54.962891"/>
      <use xlink:href="#DejaVuSans-Bold-6d" x="122.785156"/>
      <use xlink:href="#DejaVuSans-Bold-70" x="226.984375"/>
      <use xlink:href="#DejaVuSans-Bold-65" x="298.566406"/>
      <use xlink:href="#DejaVuSans-Bold-72" x="366.388672"/>
      <use xlink:href="#DejaVuSans-Bold-61" x="415.705078"/>
      <use xlink:href="#DejaVuSans-Bold-74" x="483.185547"/>
      <use xlink:href="#DejaVuSans-Bold-75" x="530.988281"/>
      <use xlink:href="#DejaVuSans-Bold-72" x="602.179688"/>
      <use xlink:href="#DejaVuSans-Bold-65" x="651.496094"/>
     </g>
    </g>
   </g>
   <g id="matplotlib.axis_4">
    <g id="ytick_6">
     <g id="line2d_22">
      <g>
       <use xlink:href="#mcceadf31b3" x="461.513333" y="388.6" style="stroke: #000000; stroke-width: 0.8"/>
      </g>
     </g>
     <g id="text_12">
      <!-- 0 -->
      <g transform="translate(448.150833 392.399219) scale(0.1 -0.1)">
       <use xlink:href="#DejaVuSans-30"/>
      </g>
     </g>
    </g>
    <g id="ytick_7">
     <g id="line2d_23">
      <g>
       <use xlink:href="#mcceadf31b3" x="461.513333" y="334.02706" style="stroke: #000000; stroke-width: 0.8"/>
      </g>
     </g>
     <g id="text_13">
      <!-- 5 -->
      <g transform="translate(448.150833 337.826278) scale(0.1 -0.1)">
       <defs>
        <path id="DejaVuSans-35" d="M 691 4666 
L 3169 4666 
L 3169 4134 
L 1269 4134 
L 1269 2991 
Q 1406 3038 1543 3061 
Q 1681 3084 1819 3084 
Q 2600 3084 3056 2656 
Q 3513 2228 3513 1497 
Q 3513 744 3044 326 
Q 2575 -91 1722 -91 
Q 1428 -91 1123 -41 
Q 819 9 494 109 
L 494 744 
Q 775 591 1075 516 
Q 1375 441 1709 441 
Q 2250 441 2565 725 
Q 2881 1009 2881 1497 
Q 2881 1984 2565 2268 
Q 2250 2553 1709 2553 
Q 1456 2553 1204 2497 
Q 953 2441 691 2322 
L 691 4666 
z
" transform="scale(0.015625)"/>
       </defs>
       <use xlink:href="#DejaVuSans-35"/>
      </g>
     </g>
    </g>
    <g id="ytick_8">
     <g id="line2d_24">
      <g>
       <use xlink:href="#mcceadf31b3" x="461.513333" y="279.454119" style="stroke: #000000; stroke-width: 0.8"/>
      </g>
     </g>
     <g id="text_14">
      <!-- 10 -->
      <g transform="translate(441.788333 283.253338) scale(0.1 -0.1)">
       <use xlink:href="#DejaVuSans-31"/>
       <use xlink:href="#DejaVuSans-30" x="63.623047"/>
      </g>
     </g>
    </g>
    <g id="ytick_9">
     <g id="line2d_25">
      <g>
       <use xlink:href="#mcceadf31b3" x="461.513333" y="224.881179" style="stroke: #000000; stroke-width: 0.8"/>
      </g>
     </g>
     <g id="text_15">
      <!-- 15 -->
      <g transform="translate(441.788333 228.680398) scale(0.1 -0.1)">
       <use xlink:href="#DejaVuSans-31"/>
       <use xlink:href="#DejaVuSans-35" x="63.623047"/>
      </g>
     </g>
    </g>
    <g id="ytick_10">
     <g id="line2d_26">
      <g>
       <use xlink:href="#mcceadf31b3" x="461.513333" y="170.308239" style="stroke: #000000; stroke-width: 0.8"/>
      </g>
     </g>
     <g id="text_16">
      <!-- 20 -->
      <g transform="translate(441.788333 174.107458) scale(0.1 -0.1)">
       <use xlink:href="#DejaVuSans-32"/>
       <use xlink:href="#DejaVuSans-30" x="63.623047"/>
      </g>
     </g>
    </g>
    <g id="ytick_11">
     <g id="line2d_27">
      <g>
       <use xlink:href="#mcceadf31b3" x="461.513333" y="115.735299" style="stroke: #000000; stroke-width: 0.8"/>
      </g>
     </g>
     <g id="text_17">
      <!-- 25 -->
      <g transform="translate(441.788333 119.534517) scale(0.1 -0.1)">
       <use xlink:href="#DejaVuSans-32"/>
       <use xlink:href="#DejaVuSans-35" x="63.623047"/>
      </g>
     </g>
    </g>
    <g id="ytick_12">
     <g id="line2d_28">
      <g>
       <use xlink:href="#mcceadf31b3" x="461.513333" y="61.162358" style="stroke: #000000; stroke-width: 0.8"/>
      </g>
     </g>
     <g id="text_18">
      <!-- 30 -->
      <g transform="translate(441.788333 64.961577) scale(0.1 -0.1)">
       <use xlink:href="#DejaVuSans-33"/>
       <use xlink:href="#DejaVuSans-30" x="63.623047"/>
      </g>
     </g>
    </g>
   </g>
   <g id="LineCollection_5">
    <path d="M 488.513377 388.6 
L 488.513377 388.6 
" clip-path="url(#p4043a47a39)" style="fill: none; stroke: #000000; stroke-width: 1.5"/>
    <path d="M 594.3959 388.6 
L 594.3959 388.6 
" clip-path="url(#p4043a47a39)" style="fill: none; stroke: #000000; stroke-width: 1.5"/>
    <path d="M 700.278423 388.6 
L 700.278423 388.6 
" clip-path="url(#p4043a47a39)" style="fill: none; stroke: #000000; stroke-width: 1.5"/>
    <path d="M 806.160946 383.142706 
L 806.160946 372.228118 
" clip-path="url(#p4043a47a39)" style="fill: none; stroke: #000000; stroke-width: 1.5"/>
   </g>
   <g id="line2d_29">
    <g clip-path="url(#p4043a47a39)">
     <use xlink:href="#m55272283b5" x="488.513377" y="388.6" style="stroke: #000000"/>
     <use xlink:href="#m55272283b5" x="594.3959" y="388.6" style="stroke: #000000"/>
     <use xlink:href="#m55272283b5" x="700.278423" y="388.6" style="stroke: #000000"/>
     <use xlink:href="#m55272283b5" x="806.160946" y="383.142706" style="stroke: #000000"/>
    </g>
   </g>
   <g id="line2d_30">
    <g clip-path="url(#p4043a47a39)">
     <use xlink:href="#m55272283b5" x="488.513377" y="388.6" style="stroke: #000000"/>
     <use xlink:href="#m55272283b5" x="594.3959" y="388.6" style="stroke: #000000"/>
     <use xlink:href="#m55272283b5" x="700.278423" y="388.6" style="stroke: #000000"/>
     <use xlink:href="#m55272283b5" x="806.160946" y="372.228118" style="stroke: #000000"/>
    </g>
   </g>
   <g id="LineCollection_6">
    <path d="M 504.395755 388.6 
L 504.395755 388.6 
" clip-path="url(#p4043a47a39)" style="fill: none; stroke: #000000; stroke-width: 1.5"/>
    <path d="M 610.278278 388.6 
L 610.278278 388.6 
" clip-path="url(#p4043a47a39)" style="fill: none; stroke: #000000; stroke-width: 1.5"/>
    <path d="M 716.160802 388.6 
L 716.160802 388.6 
" clip-path="url(#p4043a47a39)" style="fill: none; stroke: #000000; stroke-width: 1.5"/>
    <path d="M 822.043325 388.6 
L 822.043325 388.6 
" clip-path="url(#p4043a47a39)" style="fill: none; stroke: #000000; stroke-width: 1.5"/>
   </g>
   <g id="line2d_31">
    <g clip-path="url(#p4043a47a39)">
     <use xlink:href="#m55272283b5" x="504.395755" y="388.6" style="stroke: #000000"/>
     <use xlink:href="#m55272283b5" x="610.278278" y="388.6" style="stroke: #000000"/>
     <use xlink:href="#m55272283b5" x="716.160802" y="388.6" style="stroke: #000000"/>
     <use xlink:href="#m55272283b5" x="822.043325" y="388.6" style="stroke: #000000"/>
    </g>
   </g>
   <g id="line2d_32">
    <g clip-path="url(#p4043a47a39)">
     <use xlink:href="#m55272283b5" x="504.395755" y="388.6" style="stroke: #000000"/>
     <use xlink:href="#m55272283b5" x="610.278278" y="388.6" style="stroke: #000000"/>
     <use xlink:href="#m55272283b5" x="716.160802" y="388.6" style="stroke: #000000"/>
     <use xlink:href="#m55272283b5" x="822.043325" y="388.6" style="stroke: #000000"/>
    </g>
   </g>
   <g id="LineCollection_7">
    <path d="M 520.278134 230.338473 
L 520.278134 44.790476 
" clip-path="url(#p4043a47a39)" style="fill: none; stroke: #000000; stroke-width: 1.5"/>
    <path d="M 626.160657 328.569766 
L 626.160657 273.996825 
" clip-path="url(#p4043a47a39)" style="fill: none; stroke: #000000; stroke-width: 1.5"/>
    <path d="M 732.04318 339.484354 
L 732.04318 284.911413 
" clip-path="url(#p4043a47a39)" style="fill: none; stroke: #000000; stroke-width: 1.5"/>
    <path d="M 837.925703 366.770824 
L 837.925703 344.941648 
" clip-path="url(#p4043a47a39)" style="fill: none; stroke: #000000; stroke-width: 1.5"/>
   </g>
   <g id="line2d_33">
    <g clip-path="url(#p4043a47a39)">
     <use xlink:href="#m55272283b5" x="520.278134" y="230.338473" style="stroke: #000000"/>
     <use xlink:href="#m55272283b5" x="626.160657" y="328.569766" style="stroke: #000000"/>
     <use xlink:href="#m55272283b5" x="732.04318" y="339.484354" style="stroke: #000000"/>
     <use xlink:href="#m55272283b5" x="837.925703" y="366.770824" style="stroke: #000000"/>
    </g>
   </g>
   <g id="line2d_34">
    <g clip-path="url(#p4043a47a39)">
     <use xlink:href="#m55272283b5" x="520.278134" y="44.790476" style="stroke: #000000"/>
     <use xlink:href="#m55272283b5" x="626.160657" y="273.996825" style="stroke: #000000"/>
     <use xlink:href="#m55272283b5" x="732.04318" y="284.911413" style="stroke: #000000"/>
     <use xlink:href="#m55272283b5" x="837.925703" y="344.941648" style="stroke: #000000"/>
    </g>
   </g>
   <g id="LineCollection_8">
    <path d="M 536.160512 388.6 
L 536.160512 257.624943 
" clip-path="url(#p4043a47a39)" style="fill: none; stroke: #000000; stroke-width: 1.5"/>
    <path d="M 642.043035 383.142706 
L 642.043035 328.569766 
" clip-path="url(#p4043a47a39)" style="fill: none; stroke: #000000; stroke-width: 1.5"/>
    <path d="M 747.925558 388.6 
L 747.925558 344.941648 
" clip-path="url(#p4043a47a39)" style="fill: none; stroke: #000000; stroke-width: 1.5"/>
    <path d="M 853.808082 388.6 
L 853.808082 366.770824 
" clip-path="url(#p4043a47a39)" style="fill: none; stroke: #000000; stroke-width: 1.5"/>
   </g>
   <g id="line2d_35">
    <g clip-path="url(#p4043a47a39)">
     <use xlink:href="#m55272283b5" x="536.160512" y="388.6" style="stroke: #000000"/>
     <use xlink:href="#m55272283b5" x="642.043035" y="383.142706" style="stroke: #000000"/>
     <use xlink:href="#m55272283b5" x="747.925558" y="388.6" style="stroke: #000000"/>
     <use xlink:href="#m55272283b5" x="853.808082" y="388.6" style="stroke: #000000"/>
    </g>
   </g>
   <g id="line2d_36">
    <g clip-path="url(#p4043a47a39)">
     <use xlink:href="#m55272283b5" x="536.160512" y="257.624943" style="stroke: #000000"/>
     <use xlink:href="#m55272283b5" x="642.043035" y="328.569766" style="stroke: #000000"/>
     <use xlink:href="#m55272283b5" x="747.925558" y="344.941648" style="stroke: #000000"/>
     <use xlink:href="#m55272283b5" x="853.808082" y="366.770824" style="stroke: #000000"/>
    </g>
   </g>
   <g id="patch_40">
    <path d="M 461.513333 388.6 
L 461.513333 27.6 
" style="fill: none; stroke: #000000; stroke-width: 0.8; stroke-linejoin: miter; stroke-linecap: square"/>
   </g>
   <g id="patch_41">
    <path d="M 880.808125 388.6 
L 880.808125 27.6 
" style="fill: none; stroke: #000000; stroke-width: 0.8; stroke-linejoin: miter; stroke-linecap: square"/>
   </g>
   <g id="patch_42">
    <path d="M 461.513333 388.6 
L 880.808125 388.6 
" style="fill: none; stroke: #000000; stroke-width: 0.8; stroke-linejoin: miter; stroke-linecap: square"/>
   </g>
   <g id="patch_43">
    <path d="M 461.513333 27.6 
L 880.808125 27.6 
" style="fill: none; stroke: #000000; stroke-width: 0.8; stroke-linejoin: miter; stroke-linecap: square"/>
   </g>
   <g id="text_19">
    <!-- Missed Wins -->
    <g transform="translate(621.99776 21.6) scale(0.14 -0.14)">
     <defs>
      <path id="DejaVuSans-Bold-69" d="M 538 3500 
L 1656 3500 
L 1656 0 
L 538 0 
L 538 3500 
z
M 538 4863 
L 1656 4863 
L 1656 3950 
L 538 3950 
L 538 4863 
z
" transform="scale(0.015625)"/>
      <path id="DejaVuSans-Bold-64" d="M 2919 2988 
L 2919 4863 
L 4044 4863 
L 4044 0 
L 2919 0 
L 2919 506 
Q 2688 197 2409 53 
Q 2131 -91 1766 -91 
Q 1119 -91 703 423 
Q 288 938 288 1747 
Q 288 2556 703 3070 
Q 1119 3584 1766 3584 
Q 2128 3584 2408 3439 
Q 2688 3294 2919 2988 
z
M 2181 722 
Q 2541 722 2730 984 
Q 2919 1247 2919 1747 
Q 2919 2247 2730 2509 
Q 2541 2772 2181 2772 
Q 1825 2772 1636 2509 
Q 1447 2247 1447 1747 
Q 1447 1247 1636 984 
Q 1825 722 2181 722 
z
" transform="scale(0.015625)"/>
      <path id="DejaVuSans-Bold-57" d="M 191 4666 
L 1344 4666 
L 2150 1275 
L 2950 4666 
L 4109 4666 
L 4909 1275 
L 5716 4666 
L 6859 4666 
L 5759 0 
L 4372 0 
L 3525 3547 
L 2688 0 
L 1300 0 
L 191 4666 
z
" transform="scale(0.015625)"/>
      <path id="DejaVuSans-Bold-6e" d="M 4056 2131 
L 4056 0 
L 2931 0 
L 2931 347 
L 2931 1631 
Q 2931 2084 2911 2256 
Q 2891 2428 2841 2509 
Q 2775 2619 2662 2680 
Q 2550 2741 2406 2741 
Q 2056 2741 1856 2470 
Q 1656 2200 1656 1722 
L 1656 0 
L 538 0 
L 538 3500 
L 1656 3500 
L 1656 2988 
Q 1909 3294 2193 3439 
Q 2478 3584 2822 3584 
Q 3428 3584 3742 3212 
Q 4056 2841 4056 2131 
z
" transform="scale(0.015625)"/>
     </defs>
     <use xlink:href="#DejaVuSans-Bold-4d"/>
     <use xlink:href="#DejaVuSans-Bold-69" x="99.511719"/>
     <use xlink:href="#DejaVuSans-Bold-73" x="133.789062"/>
     <use xlink:href="#DejaVuSans-Bold-73" x="193.310547"/>
     <use xlink:href="#DejaVuSans-Bold-65" x="252.832031"/>
     <use xlink:href="#DejaVuSans-Bold-64" x="320.654297"/>
     <use xlink:href="#DejaVuSans-Bold-20" x="392.236328"/>
     <use xlink:href="#DejaVuSans-Bold-57" x="427.050781"/>
     <use xlink:href="#DejaVuSans-Bold-69" x="537.353516"/>
     <use xlink:href="#DejaVuSans-Bold-6e" x="571.630859"/>
     <use xlink:href="#DejaVuSans-Bold-73" x="642.822266"/>
    </g>
   </g>
  </g>
  <g id="axes_3">
   <g id="patch_44">
    <path d="M 904.380208 388.6 
L 1323.675 388.6 
L 1323.675 27.6 
L 904.380208 27.6 
z
" style="fill: #ffffff"/>
   </g>
   <g id="patch_45">
    <path d="M 923.439062 388.6 
L 939.321441 388.6 
L 939.321441 388.6 
L 923.439062 388.6 
z
" clip-path="url(#p9a05478f4b)" style="fill: #1f77b4"/>
   </g>
   <g id="patch_46">
    <path d="M 1029.321586 388.6 
L 1045.203964 388.6 
L 1045.203964 388.6 
L 1029.321586 388.6 
z
" clip-path="url(#p9a05478f4b)" style="fill: #1f77b4"/>
   </g>
   <g id="patch_47">
    <path d="M 1135.204109 388.6 
L 1151.086487 388.6 
L 1151.086487 388.6 
L 1135.204109 388.6 
z
" clip-path="url(#p9a05478f4b)" style="fill: #1f77b4"/>
   </g>
   <g id="patch_48">
    <path d="M 1241.086632 388.6 
L 1256.96901 388.6 
L 1256.96901 388.6 
L 1241.086632 388.6 
z
" clip-path="url(#p9a05478f4b)" style="fill: #1f77b4"/>
   </g>
   <g id="patch_49">
    <path d="M 939.321441 388.6 
L 955.203819 388.6 
L 955.203819 388.217989 
L 939.321441 388.217989 
z
" clip-path="url(#p9a05478f4b)" style="fill: #ff7f0e"/>
   </g>
   <g id="patch_50">
    <path d="M 1045.203964 388.6 
L 1061.086343 388.6 
L 1061.086343 380.959788 
L 1045.203964 380.959788 
z
" clip-path="url(#p9a05478f4b)" style="fill: #ff7f0e"/>
   </g>
   <g id="patch_51">
    <path d="M 1151.086487 388.6 
L 1166.968866 388.6 
L 1166.968866 380.959788 
L 1151.086487 380.959788 
z
" clip-path="url(#p9a05478f4b)" style="fill: #ff7f0e"/>
   </g>
   <g id="patch_52">
    <path d="M 1256.96901 388.6 
L 1272.851389 388.6 
L 1272.851389 369.499471 
L 1256.96901 369.499471 
z
" clip-path="url(#p9a05478f4b)" style="fill: #ff7f0e"/>
   </g>
   <g id="patch_53">
    <path d="M 955.203819 388.6 
L 971.086198 388.6 
L 971.086198 331.298413 
L 955.203819 331.298413 
z
" clip-path="url(#p9a05478f4b)" style="fill: #2ca02c"/>
   </g>
   <g id="patch_54">
    <path d="M 1061.086343 388.6 
L 1076.968721 388.6 
L 1076.968721 354.219048 
L 1061.086343 354.219048 
z
" clip-path="url(#p9a05478f4b)" style="fill: #2ca02c"/>
   </g>
   <g id="patch_55">
    <path d="M 1166.968866 388.6 
L 1182.851244 388.6 
L 1182.851244 369.499471 
L 1166.968866 369.499471 
z
" clip-path="url(#p9a05478f4b)" style="fill: #2ca02c"/>
   </g>
   <g id="patch_56">
    <path d="M 1272.851389 388.6 
L 1288.733767 388.6 
L 1288.733767 377.139683 
L 1272.851389 377.139683 
z
" clip-path="url(#p9a05478f4b)" style="fill: #2ca02c"/>
   </g>
   <g id="patch_57">
    <path d="M 971.086198 388.6 
L 986.968576 388.6 
L 986.968576 140.293122 
L 971.086198 140.293122 
z
" clip-path="url(#p9a05478f4b)" style="fill: #d62728"/>
   </g>
   <g id="patch_58">
    <path d="M 1076.968721 388.6 
L 1092.8511 388.6 
L 1092.8511 308.377778 
L 1076.968721 308.377778 
z
" clip-path="url(#p9a05478f4b)" style="fill: #d62728"/>
   </g>
   <g id="patch_59">
    <path d="M 1182.851244 388.6 
L 1198.733623 388.6 
L 1198.733623 312.197884 
L 1182.851244 312.197884 
z
" clip-path="url(#p9a05478f4b)" style="fill: #d62728"/>
   </g>
   <g id="patch_60">
    <path d="M 1288.733767 388.6 
L 1304.616146 388.6 
L 1304.616146 365.679365 
L 1288.733767 365.679365 
z
" clip-path="url(#p9a05478f4b)" style="fill: #d62728"/>
   </g>
   <g id="matplotlib.axis_5">
    <g id="xtick_9">
     <g id="line2d_37">
      <g>
       <use xlink:href="#m4fbeff9158" x="947.26263" y="388.6" style="stroke: #000000; stroke-width: 0.8"/>
      </g>
     </g>
    </g>
    <g id="xtick_10">
     <g id="line2d_38">
      <g>
       <use xlink:href="#m4fbeff9158" x="1053.145153" y="388.6" style="stroke: #000000; stroke-width: 0.8"/>
      </g>
     </g>
    </g>
    <g id="xtick_11">
     <g id="line2d_39">
      <g>
       <use xlink:href="#m4fbeff9158" x="1159.027677" y="388.6" style="stroke: #000000; stroke-width: 0.8"/>
      </g>
     </g>
    </g>
    <g id="xtick_12">
     <g id="line2d_40">
      <g>
       <use xlink:href="#m4fbeff9158" x="1264.9102" y="388.6" style="stroke: #000000; stroke-width: 0.8"/>
      </g>
     </g>
    </g>
   </g>
   <g id="matplotlib.axis_6">
    <g id="ytick_13">
     <g id="line2d_41">
      <g>
       <use xlink:href="#mcceadf31b3" x="904.380208" y="388.6" style="stroke: #000000; stroke-width: 0.8"/>
      </g>
     </g>
     <g id="text_20">
      <!-- 0 -->
      <g transform="translate(891.017708 392.399219) scale(0.1 -0.1)">
       <use xlink:href="#DejaVuSans-30"/>
      </g>
     </g>
    </g>
    <g id="ytick_14">
     <g id="line2d_42">
      <g>
       <use xlink:href="#mcceadf31b3" x="904.380208" y="312.197884" style="stroke: #000000; stroke-width: 0.8"/>
      </g>
     </g>
     <g id="text_21">
      <!-- 20 -->
      <g transform="translate(884.655208 315.997102) scale(0.1 -0.1)">
       <use xlink:href="#DejaVuSans-32"/>
       <use xlink:href="#DejaVuSans-30" x="63.623047"/>
      </g>
     </g>
    </g>
    <g id="ytick_15">
     <g id="line2d_43">
      <g>
       <use xlink:href="#mcceadf31b3" x="904.380208" y="235.795767" style="stroke: #000000; stroke-width: 0.8"/>
      </g>
     </g>
     <g id="text_22">
      <!-- 40 -->
      <g transform="translate(884.655208 239.594986) scale(0.1 -0.1)">
       <use xlink:href="#DejaVuSans-34"/>
       <use xlink:href="#DejaVuSans-30" x="63.623047"/>
      </g>
     </g>
    </g>
    <g id="ytick_16">
     <g id="line2d_44">
      <g>
       <use xlink:href="#mcceadf31b3" x="904.380208" y="159.393651" style="stroke: #000000; stroke-width: 0.8"/>
      </g>
     </g>
     <g id="text_23">
      <!-- 60 -->
      <g transform="translate(884.655208 163.19287) scale(0.1 -0.1)">
       <defs>
        <path id="DejaVuSans-36" d="M 2113 2584 
Q 1688 2584 1439 2293 
Q 1191 2003 1191 1497 
Q 1191 994 1439 701 
Q 1688 409 2113 409 
Q 2538 409 2786 701 
Q 3034 994 3034 1497 
Q 3034 2003 2786 2293 
Q 2538 2584 2113 2584 
z
M 3366 4563 
L 3366 3988 
Q 3128 4100 2886 4159 
Q 2644 4219 2406 4219 
Q 1781 4219 1451 3797 
Q 1122 3375 1075 2522 
Q 1259 2794 1537 2939 
Q 1816 3084 2150 3084 
Q 2853 3084 3261 2657 
Q 3669 2231 3669 1497 
Q 3669 778 3244 343 
Q 2819 -91 2113 -91 
Q 1303 -91 875 529 
Q 447 1150 447 2328 
Q 447 3434 972 4092 
Q 1497 4750 2381 4750 
Q 2619 4750 2861 4703 
Q 3103 4656 3366 4563 
z
" transform="scale(0.015625)"/>
       </defs>
       <use xlink:href="#DejaVuSans-36"/>
       <use xlink:href="#DejaVuSans-30" x="63.623047"/>
      </g>
     </g>
    </g>
    <g id="ytick_17">
     <g id="line2d_45">
      <g>
       <use xlink:href="#mcceadf31b3" x="904.380208" y="82.991534" style="stroke: #000000; stroke-width: 0.8"/>
      </g>
     </g>
     <g id="text_24">
      <!-- 80 -->
      <g transform="translate(884.655208 86.790753) scale(0.1 -0.1)">
       <defs>
        <path id="DejaVuSans-38" d="M 2034 2216 
Q 1584 2216 1326 1975 
Q 1069 1734 1069 1313 
Q 1069 891 1326 650 
Q 1584 409 2034 409 
Q 2484 409 2743 651 
Q 3003 894 3003 1313 
Q 3003 1734 2745 1975 
Q 2488 2216 2034 2216 
z
M 1403 2484 
Q 997 2584 770 2862 
Q 544 3141 544 3541 
Q 544 4100 942 4425 
Q 1341 4750 2034 4750 
Q 2731 4750 3128 4425 
Q 3525 4100 3525 3541 
Q 3525 3141 3298 2862 
Q 3072 2584 2669 2484 
Q 3125 2378 3379 2068 
Q 3634 1759 3634 1313 
Q 3634 634 3220 271 
Q 2806 -91 2034 -91 
Q 1263 -91 848 271 
Q 434 634 434 1313 
Q 434 1759 690 2068 
Q 947 2378 1403 2484 
z
M 1172 3481 
Q 1172 3119 1398 2916 
Q 1625 2713 2034 2713 
Q 2441 2713 2670 2916 
Q 2900 3119 2900 3481 
Q 2900 3844 2670 4047 
Q 2441 4250 2034 4250 
Q 1625 4250 1398 4047 
Q 1172 3844 1172 3481 
z
" transform="scale(0.015625)"/>
       </defs>
       <use xlink:href="#DejaVuSans-38"/>
       <use xlink:href="#DejaVuSans-30" x="63.623047"/>
      </g>
     </g>
    </g>
   </g>
   <g id="LineCollection_9">
    <path d="M 931.380252 388.6 
L 931.380252 388.6 
" clip-path="url(#p9a05478f4b)" style="fill: none; stroke: #000000; stroke-width: 1.5"/>
    <path d="M 1037.262775 388.6 
L 1037.262775 388.6 
" clip-path="url(#p9a05478f4b)" style="fill: none; stroke: #000000; stroke-width: 1.5"/>
    <path d="M 1143.145298 388.6 
L 1143.145298 388.6 
" clip-path="url(#p9a05478f4b)" style="fill: none; stroke: #000000; stroke-width: 1.5"/>
    <path d="M 1249.027821 388.6 
L 1249.027821 388.6 
" clip-path="url(#p9a05478f4b)" style="fill: none; stroke: #000000; stroke-width: 1.5"/>
   </g>
   <g id="line2d_46">
    <g clip-path="url(#p9a05478f4b)">
     <use xlink:href="#m55272283b5" x="931.380252" y="388.6" style="stroke: #000000"/>
     <use xlink:href="#m55272283b5" x="1037.262775" y="388.6" style="stroke: #000000"/>
     <use xlink:href="#m55272283b5" x="1143.145298" y="388.6" style="stroke: #000000"/>
     <use xlink:href="#m55272283b5" x="1249.027821" y="388.6" style="stroke: #000000"/>
    </g>
   </g>
   <g id="line2d_47">
    <g clip-path="url(#p9a05478f4b)">
     <use xlink:href="#m55272283b5" x="931.380252" y="388.6" style="stroke: #000000"/>
     <use xlink:href="#m55272283b5" x="1037.262775" y="388.6" style="stroke: #000000"/>
     <use xlink:href="#m55272283b5" x="1143.145298" y="388.6" style="stroke: #000000"/>
     <use xlink:href="#m55272283b5" x="1249.027821" y="388.6" style="stroke: #000000"/>
    </g>
   </g>
   <g id="LineCollection_10">
    <path d="M 947.26263 388.408995 
L 947.26263 388.026984 
" clip-path="url(#p9a05478f4b)" style="fill: none; stroke: #000000; stroke-width: 1.5"/>
    <path d="M 1053.145153 384.779894 
L 1053.145153 377.139683 
" clip-path="url(#p9a05478f4b)" style="fill: none; stroke: #000000; stroke-width: 1.5"/>
    <path d="M 1159.027677 384.779894 
L 1159.027677 377.139683 
" clip-path="url(#p9a05478f4b)" style="fill: none; stroke: #000000; stroke-width: 1.5"/>
    <path d="M 1264.9102 379.049735 
L 1264.9102 359.949206 
" clip-path="url(#p9a05478f4b)" style="fill: none; stroke: #000000; stroke-width: 1.5"/>
   </g>
   <g id="line2d_48">
    <g clip-path="url(#p9a05478f4b)">
     <use xlink:href="#m55272283b5" x="947.26263" y="388.408995" style="stroke: #000000"/>
     <use xlink:href="#m55272283b5" x="1053.145153" y="384.779894" style="stroke: #000000"/>
     <use xlink:href="#m55272283b5" x="1159.027677" y="384.779894" style="stroke: #000000"/>
     <use xlink:href="#m55272283b5" x="1264.9102" y="379.049735" style="stroke: #000000"/>
    </g>
   </g>
   <g id="line2d_49">
    <g clip-path="url(#p9a05478f4b)">
     <use xlink:href="#m55272283b5" x="947.26263" y="388.026984" style="stroke: #000000"/>
     <use xlink:href="#m55272283b5" x="1053.145153" y="377.139683" style="stroke: #000000"/>
     <use xlink:href="#m55272283b5" x="1159.027677" y="377.139683" style="stroke: #000000"/>
     <use xlink:href="#m55272283b5" x="1264.9102" y="359.949206" style="stroke: #000000"/>
    </g>
   </g>
   <g id="LineCollection_11">
    <path d="M 963.145009 388.6 
L 963.145009 273.996825 
" clip-path="url(#p9a05478f4b)" style="fill: none; stroke: #000000; stroke-width: 1.5"/>
    <path d="M 1069.027532 377.139683 
L 1069.027532 331.298413 
" clip-path="url(#p9a05478f4b)" style="fill: none; stroke: #000000; stroke-width: 1.5"/>
    <path d="M 1174.910055 388.6 
L 1174.910055 350.398942 
" clip-path="url(#p9a05478f4b)" style="fill: none; stroke: #000000; stroke-width: 1.5"/>
    <path d="M 1280.792578 382.869841 
L 1280.792578 371.409524 
" clip-path="url(#p9a05478f4b)" style="fill: none; stroke: #000000; stroke-width: 1.5"/>
   </g>
   <g id="line2d_50">
    <g clip-path="url(#p9a05478f4b)">
     <use xlink:href="#m55272283b5" x="963.145009" y="388.6" style="stroke: #000000"/>
     <use xlink:href="#m55272283b5" x="1069.027532" y="377.139683" style="stroke: #000000"/>
     <use xlink:href="#m55272283b5" x="1174.910055" y="388.6" style="stroke: #000000"/>
     <use xlink:href="#m55272283b5" x="1280.792578" y="382.869841" style="stroke: #000000"/>
    </g>
   </g>
   <g id="line2d_51">
    <g clip-path="url(#p9a05478f4b)">
     <use xlink:href="#m55272283b5" x="963.145009" y="273.996825" style="stroke: #000000"/>
     <use xlink:href="#m55272283b5" x="1069.027532" y="331.298413" style="stroke: #000000"/>
     <use xlink:href="#m55272283b5" x="1174.910055" y="350.398942" style="stroke: #000000"/>
     <use xlink:href="#m55272283b5" x="1280.792578" y="371.409524" style="stroke: #000000"/>
    </g>
   </g>
   <g id="LineCollection_12">
    <path d="M 979.027387 235.795767 
L 979.027387 44.790476 
" clip-path="url(#p9a05478f4b)" style="fill: none; stroke: #000000; stroke-width: 1.5"/>
    <path d="M 1084.90991 331.298413 
L 1084.90991 285.457143 
" clip-path="url(#p9a05478f4b)" style="fill: none; stroke: #000000; stroke-width: 1.5"/>
    <path d="M 1190.792433 340.848677 
L 1190.792433 283.54709 
" clip-path="url(#p9a05478f4b)" style="fill: none; stroke: #000000; stroke-width: 1.5"/>
    <path d="M 1296.674957 371.409524 
L 1296.674957 359.949206 
" clip-path="url(#p9a05478f4b)" style="fill: none; stroke: #000000; stroke-width: 1.5"/>
   </g>
   <g id="line2d_52">
    <g clip-path="url(#p9a05478f4b)">
     <use xlink:href="#m55272283b5" x="979.027387" y="235.795767" style="stroke: #000000"/>
     <use xlink:href="#m55272283b5" x="1084.90991" y="331.298413" style="stroke: #000000"/>
     <use xlink:href="#m55272283b5" x="1190.792433" y="340.848677" style="stroke: #000000"/>
     <use xlink:href="#m55272283b5" x="1296.674957" y="371.409524" style="stroke: #000000"/>
    </g>
   </g>
   <g id="line2d_53">
    <g clip-path="url(#p9a05478f4b)">
     <use xlink:href="#m55272283b5" x="979.027387" y="44.790476" style="stroke: #000000"/>
     <use xlink:href="#m55272283b5" x="1084.90991" y="285.457143" style="stroke: #000000"/>
     <use xlink:href="#m55272283b5" x="1190.792433" y="283.54709" style="stroke: #000000"/>
     <use xlink:href="#m55272283b5" x="1296.674957" y="359.949206" style="stroke: #000000"/>
    </g>
   </g>
   <g id="patch_61">
    <path d="M 904.380208 388.6 
L 904.380208 27.6 
" style="fill: none; stroke: #000000; stroke-width: 0.8; stroke-linejoin: miter; stroke-linecap: square"/>
   </g>
   <g id="patch_62">
    <path d="M 1323.675 388.6 
L 1323.675 27.6 
" style="fill: none; stroke: #000000; stroke-width: 0.8; stroke-linejoin: miter; stroke-linecap: square"/>
   </g>
   <g id="patch_63">
    <path d="M 904.380208 388.6 
L 1323.675 388.6 
" style="fill: none; stroke: #000000; stroke-width: 0.8; stroke-linejoin: miter; stroke-linecap: square"/>
   </g>
   <g id="patch_64">
    <path d="M 904.380208 27.6 
L 1323.675 27.6 
" style="fill: none; stroke: #000000; stroke-width: 0.8; stroke-linejoin: miter; stroke-linecap: square"/>
   </g>
   <g id="text_25">
    <!-- Missed Blocks -->
    <g transform="translate(1058.619323 21.6) scale(0.14 -0.14)">
     <defs>
      <path id="DejaVuSans-Bold-42" d="M 2456 2859 
Q 2741 2859 2887 2984 
Q 3034 3109 3034 3353 
Q 3034 3594 2887 3720 
Q 2741 3847 2456 3847 
L 1791 3847 
L 1791 2859 
L 2456 2859 
z
M 2497 819 
Q 2859 819 3042 972 
Q 3225 1125 3225 1434 
Q 3225 1738 3044 1889 
Q 2863 2041 2497 2041 
L 1791 2041 
L 1791 819 
L 2497 819 
z
M 3616 2497 
Q 4003 2384 4215 2081 
Q 4428 1778 4428 1338 
Q 4428 663 3972 331 
Q 3516 0 2584 0 
L 588 0 
L 588 4666 
L 2394 4666 
Q 3366 4666 3802 4372 
Q 4238 4078 4238 3431 
Q 4238 3091 4078 2852 
Q 3919 2613 3616 2497 
z
" transform="scale(0.015625)"/>
      <path id="DejaVuSans-Bold-6c" d="M 538 4863 
L 1656 4863 
L 1656 0 
L 538 0 
L 538 4863 
z
" transform="scale(0.015625)"/>
      <path id="DejaVuSans-Bold-63" d="M 3366 3391 
L 3366 2478 
Q 3138 2634 2908 2709 
Q 2678 2784 2431 2784 
Q 1963 2784 1702 2511 
Q 1441 2238 1441 1747 
Q 1441 1256 1702 982 
Q 1963 709 2431 709 
Q 2694 709 2930 787 
Q 3166 866 3366 1019 
L 3366 103 
Q 3103 6 2833 -42 
Q 2563 -91 2291 -91 
Q 1344 -91 809 395 
Q 275 881 275 1747 
Q 275 2613 809 3098 
Q 1344 3584 2291 3584 
Q 2566 3584 2833 3536 
Q 3100 3488 3366 3391 
z
" transform="scale(0.015625)"/>
      <path id="DejaVuSans-Bold-6b" d="M 538 4863 
L 1656 4863 
L 1656 2216 
L 2944 3500 
L 4244 3500 
L 2534 1894 
L 4378 0 
L 3022 0 
L 1656 1459 
L 1656 0 
L 538 0 
L 538 4863 
z
" transform="scale(0.015625)"/>
     </defs>
     <use xlink:href="#DejaVuSans-Bold-4d"/>
     <use xlink:href="#DejaVuSans-Bold-69" x="99.511719"/>
     <use xlink:href="#DejaVuSans-Bold-73" x="133.789062"/>
     <use xlink:href="#DejaVuSans-Bold-73" x="193.310547"/>
     <use xlink:href="#DejaVuSans-Bold-65" x="252.832031"/>
     <use xlink:href="#DejaVuSans-Bold-64" x="320.654297"/>
     <use xlink:href="#DejaVuSans-Bold-20" x="392.236328"/>
     <use xlink:href="#DejaVuSans-Bold-42" x="427.050781"/>
     <use xlink:href="#DejaVuSans-Bold-6c" x="503.271484"/>
     <use xlink:href="#DejaVuSans-Bold-6f" x="537.548828"/>
     <use xlink:href="#DejaVuSans-Bold-63" x="606.25"/>
     <use xlink:href="#DejaVuSans-Bold-6b" x="665.527344"/>
     <use xlink:href="#DejaVuSans-Bold-73" x="732.03125"/>
    </g>
   </g>
   <g id="legend_1">
    <g id="patch_65">
     <path d="M 1205.757812 94.86875 
L 1316.675 94.86875 
Q 1318.675 94.86875 1318.675 92.86875 
L 1318.675 34.6 
Q 1318.675 32.6 1316.675 32.6 
L 1205.757812 32.6 
Q 1203.757812 32.6 1203.757812 34.6 
L 1203.757812 92.86875 
Q 1203.757812 94.86875 1205.757812 94.86875 
z
" style="fill: #ffffff; opacity: 0.8; stroke: #cccccc; stroke-linejoin: miter"/>
    </g>
    <g id="patch_66">
     <path d="M 1207.757812 44.198437 
L 1227.757812 44.198437 
L 1227.757812 37.198437 
L 1207.757812 37.198437 
z
" style="fill: #1f77b4"/>
    </g>
    <g id="text_26">
     <!-- gpt3_5 Model -->
     <g transform="translate(1235.757812 44.198437) scale(0.1 -0.1)">
      <defs>
       <path id="DejaVuSans-67" d="M 2906 1791 
Q 2906 2416 2648 2759 
Q 2391 3103 1925 3103 
Q 1463 3103 1205 2759 
Q 947 2416 947 1791 
Q 947 1169 1205 825 
Q 1463 481 1925 481 
Q 2391 481 2648 825 
Q 2906 1169 2906 1791 
z
M 3481 434 
Q 3481 -459 3084 -895 
Q 2688 -1331 1869 -1331 
Q 1566 -1331 1297 -1286 
Q 1028 -1241 775 -1147 
L 775 -588 
Q 1028 -725 1275 -790 
Q 1522 -856 1778 -856 
Q 2344 -856 2625 -561 
Q 2906 -266 2906 331 
L 2906 616 
Q 2728 306 2450 153 
Q 2172 0 1784 0 
Q 1141 0 747 490 
Q 353 981 353 1791 
Q 353 2603 747 3093 
Q 1141 3584 1784 3584 
Q 2172 3584 2450 3431 
Q 2728 3278 2906 2969 
L 2906 3500 
L 3481 3500 
L 3481 434 
z
" transform="scale(0.015625)"/>
       <path id="DejaVuSans-70" d="M 1159 525 
L 1159 -1331 
L 581 -1331 
L 581 3500 
L 1159 3500 
L 1159 2969 
Q 1341 3281 1617 3432 
Q 1894 3584 2278 3584 
Q 2916 3584 3314 3078 
Q 3713 2572 3713 1747 
Q 3713 922 3314 415 
Q 2916 -91 2278 -91 
Q 1894 -91 1617 61 
Q 1341 213 1159 525 
z
M 3116 1747 
Q 3116 2381 2855 2742 
Q 2594 3103 2138 3103 
Q 1681 3103 1420 2742 
Q 1159 2381 1159 1747 
Q 1159 1113 1420 752 
Q 1681 391 2138 391 
Q 2594 391 2855 752 
Q 3116 1113 3116 1747 
z
" transform="scale(0.015625)"/>
       <path id="DejaVuSans-74" d="M 1172 4494 
L 1172 3500 
L 2356 3500 
L 2356 3053 
L 1172 3053 
L 1172 1153 
Q 1172 725 1289 603 
Q 1406 481 1766 481 
L 2356 481 
L 2356 0 
L 1766 0 
Q 1100 0 847 248 
Q 594 497 594 1153 
L 594 3053 
L 172 3053 
L 172 3500 
L 594 3500 
L 594 4494 
L 1172 4494 
z
" transform="scale(0.015625)"/>
       <path id="DejaVuSans-5f" d="M 3263 -1063 
L 3263 -1509 
L -63 -1509 
L -63 -1063 
L 3263 -1063 
z
" transform="scale(0.015625)"/>
       <path id="DejaVuSans-20" transform="scale(0.015625)"/>
       <path id="DejaVuSans-4d" d="M 628 4666 
L 1569 4666 
L 2759 1491 
L 3956 4666 
L 4897 4666 
L 4897 0 
L 4281 0 
L 4281 4097 
L 3078 897 
L 2444 897 
L 1241 4097 
L 1241 0 
L 628 0 
L 628 4666 
z
" transform="scale(0.015625)"/>
       <path id="DejaVuSans-6f" d="M 1959 3097 
Q 1497 3097 1228 2736 
Q 959 2375 959 1747 
Q 959 1119 1226 758 
Q 1494 397 1959 397 
Q 2419 397 2687 759 
Q 2956 1122 2956 1747 
Q 2956 2369 2687 2733 
Q 2419 3097 1959 3097 
z
M 1959 3584 
Q 2709 3584 3137 3096 
Q 3566 2609 3566 1747 
Q 3566 888 3137 398 
Q 2709 -91 1959 -91 
Q 1206 -91 779 398 
Q 353 888 353 1747 
Q 353 2609 779 3096 
Q 1206 3584 1959 3584 
z
" transform="scale(0.015625)"/>
       <path id="DejaVuSans-64" d="M 2906 2969 
L 2906 4863 
L 3481 4863 
L 3481 0 
L 2906 0 
L 2906 525 
Q 2725 213 2448 61 
Q 2172 -91 1784 -91 
Q 1150 -91 751 415 
Q 353 922 353 1747 
Q 353 2572 751 3078 
Q 1150 3584 1784 3584 
Q 2172 3584 2448 3432 
Q 2725 3281 2906 2969 
z
M 947 1747 
Q 947 1113 1208 752 
Q 1469 391 1925 391 
Q 2381 391 2643 752 
Q 2906 1113 2906 1747 
Q 2906 2381 2643 2742 
Q 2381 3103 1925 3103 
Q 1469 3103 1208 2742 
Q 947 2381 947 1747 
z
" transform="scale(0.015625)"/>
       <path id="DejaVuSans-65" d="M 3597 1894 
L 3597 1613 
L 953 1613 
Q 991 1019 1311 708 
Q 1631 397 2203 397 
Q 2534 397 2845 478 
Q 3156 559 3463 722 
L 3463 178 
Q 3153 47 2828 -22 
Q 2503 -91 2169 -91 
Q 1331 -91 842 396 
Q 353 884 353 1716 
Q 353 2575 817 3079 
Q 1281 3584 2069 3584 
Q 2775 3584 3186 3129 
Q 3597 2675 3597 1894 
z
M 3022 2063 
Q 3016 2534 2758 2815 
Q 2500 3097 2075 3097 
Q 1594 3097 1305 2825 
Q 1016 2553 972 2059 
L 3022 2063 
z
" transform="scale(0.015625)"/>
       <path id="DejaVuSans-6c" d="M 603 4863 
L 1178 4863 
L 1178 0 
L 603 0 
L 603 4863 
z
" transform="scale(0.015625)"/>
      </defs>
      <use xlink:href="#DejaVuSans-67"/>
      <use xlink:href="#DejaVuSans-70" x="63.476562"/>
      <use xlink:href="#DejaVuSans-74" x="126.953125"/>
      <use xlink:href="#DejaVuSans-33" x="166.162109"/>
      <use xlink:href="#DejaVuSans-5f" x="229.785156"/>
      <use xlink:href="#DejaVuSans-35" x="279.785156"/>
      <use xlink:href="#DejaVuSans-20" x="343.408203"/>
      <use xlink:href="#DejaVuSans-4d" x="375.195312"/>
      <use xlink:href="#DejaVuSans-6f" x="461.474609"/>
      <use xlink:href="#DejaVuSans-64" x="522.65625"/>
      <use xlink:href="#DejaVuSans-65" x="586.132812"/>
      <use xlink:href="#DejaVuSans-6c" x="647.65625"/>
     </g>
    </g>
    <g id="patch_67">
     <path d="M 1207.757812 59.154687 
L 1227.757812 59.154687 
L 1227.757812 52.154687 
L 1207.757812 52.154687 
z
" style="fill: #ff7f0e"/>
    </g>
    <g id="text_27">
     <!-- gpt3_5 Random -->
     <g transform="translate(1235.757812 59.154687) scale(0.1 -0.1)">
      <defs>
       <path id="DejaVuSans-52" d="M 2841 2188 
Q 3044 2119 3236 1894 
Q 3428 1669 3622 1275 
L 4263 0 
L 3584 0 
L 2988 1197 
Q 2756 1666 2539 1819 
Q 2322 1972 1947 1972 
L 1259 1972 
L 1259 0 
L 628 0 
L 628 4666 
L 2053 4666 
Q 2853 4666 3247 4331 
Q 3641 3997 3641 3322 
Q 3641 2881 3436 2590 
Q 3231 2300 2841 2188 
z
M 1259 4147 
L 1259 2491 
L 2053 2491 
Q 2509 2491 2742 2702 
Q 2975 2913 2975 3322 
Q 2975 3731 2742 3939 
Q 2509 4147 2053 4147 
L 1259 4147 
z
" transform="scale(0.015625)"/>
       <path id="DejaVuSans-61" d="M 2194 1759 
Q 1497 1759 1228 1600 
Q 959 1441 959 1056 
Q 959 750 1161 570 
Q 1363 391 1709 391 
Q 2188 391 2477 730 
Q 2766 1069 2766 1631 
L 2766 1759 
L 2194 1759 
z
M 3341 1997 
L 3341 0 
L 2766 0 
L 2766 531 
Q 2569 213 2275 61 
Q 1981 -91 1556 -91 
Q 1019 -91 701 211 
Q 384 513 384 1019 
Q 384 1609 779 1909 
Q 1175 2209 1959 2209 
L 2766 2209 
L 2766 2266 
Q 2766 2663 2505 2880 
Q 2244 3097 1772 3097 
Q 1472 3097 1187 3025 
Q 903 2953 641 2809 
L 641 3341 
Q 956 3463 1253 3523 
Q 1550 3584 1831 3584 
Q 2591 3584 2966 3190 
Q 3341 2797 3341 1997 
z
" transform="scale(0.015625)"/>
       <path id="DejaVuSans-6e" d="M 3513 2113 
L 3513 0 
L 2938 0 
L 2938 2094 
Q 2938 2591 2744 2837 
Q 2550 3084 2163 3084 
Q 1697 3084 1428 2787 
Q 1159 2491 1159 1978 
L 1159 0 
L 581 0 
L 581 3500 
L 1159 3500 
L 1159 2956 
Q 1366 3272 1645 3428 
Q 1925 3584 2291 3584 
Q 2894 3584 3203 3211 
Q 3513 2838 3513 2113 
z
" transform="scale(0.015625)"/>
       <path id="DejaVuSans-6d" d="M 3328 2828 
Q 3544 3216 3844 3400 
Q 4144 3584 4550 3584 
Q 5097 3584 5394 3201 
Q 5691 2819 5691 2113 
L 5691 0 
L 5113 0 
L 5113 2094 
Q 5113 2597 4934 2840 
Q 4756 3084 4391 3084 
Q 3944 3084 3684 2787 
Q 3425 2491 3425 1978 
L 3425 0 
L 2847 0 
L 2847 2094 
Q 2847 2600 2669 2842 
Q 2491 3084 2119 3084 
Q 1678 3084 1418 2786 
Q 1159 2488 1159 1978 
L 1159 0 
L 581 0 
L 581 3500 
L 1159 3500 
L 1159 2956 
Q 1356 3278 1631 3431 
Q 1906 3584 2284 3584 
Q 2666 3584 2933 3390 
Q 3200 3197 3328 2828 
z
" transform="scale(0.015625)"/>
      </defs>
      <use xlink:href="#DejaVuSans-67"/>
      <use xlink:href="#DejaVuSans-70" x="63.476562"/>
      <use xlink:href="#DejaVuSans-74" x="126.953125"/>
      <use xlink:href="#DejaVuSans-33" x="166.162109"/>
      <use xlink:href="#DejaVuSans-5f" x="229.785156"/>
      <use xlink:href="#DejaVuSans-35" x="279.785156"/>
      <use xlink:href="#DejaVuSans-20" x="343.408203"/>
      <use xlink:href="#DejaVuSans-52" x="375.195312"/>
      <use xlink:href="#DejaVuSans-61" x="442.427734"/>
      <use xlink:href="#DejaVuSans-6e" x="503.707031"/>
      <use xlink:href="#DejaVuSans-64" x="567.085938"/>
      <use xlink:href="#DejaVuSans-6f" x="630.5625"/>
      <use xlink:href="#DejaVuSans-6d" x="691.744141"/>
     </g>
    </g>
    <g id="patch_68">
     <path d="M 1207.757812 74.110937 
L 1227.757812 74.110937 
L 1227.757812 67.110937 
L 1207.757812 67.110937 
z
" style="fill: #2ca02c"/>
    </g>
    <g id="text_28">
     <!-- gpt4 Model -->
     <g transform="translate(1235.757812 74.110937) scale(0.1 -0.1)">
      <use xlink:href="#DejaVuSans-67"/>
      <use xlink:href="#DejaVuSans-70" x="63.476562"/>
      <use xlink:href="#DejaVuSans-74" x="126.953125"/>
      <use xlink:href="#DejaVuSans-34" x="166.162109"/>
      <use xlink:href="#DejaVuSans-20" x="229.785156"/>
      <use xlink:href="#DejaVuSans-4d" x="261.572266"/>
      <use xlink:href="#DejaVuSans-6f" x="347.851562"/>
      <use xlink:href="#DejaVuSans-64" x="409.033203"/>
      <use xlink:href="#DejaVuSans-65" x="472.509766"/>
      <use xlink:href="#DejaVuSans-6c" x="534.033203"/>
     </g>
    </g>
    <g id="patch_69">
     <path d="M 1207.757812 88.789062 
L 1227.757812 88.789062 
L 1227.757812 81.789062 
L 1207.757812 81.789062 
z
" style="fill: #d62728"/>
    </g>
    <g id="text_29">
     <!-- gpt4 Random -->
     <g transform="translate(1235.757812 88.789062) scale(0.1 -0.1)">
      <use xlink:href="#DejaVuSans-67"/>
      <use xlink:href="#DejaVuSans-70" x="63.476562"/>
      <use xlink:href="#DejaVuSans-74" x="126.953125"/>
      <use xlink:href="#DejaVuSans-34" x="166.162109"/>
      <use xlink:href="#DejaVuSans-20" x="229.785156"/>
      <use xlink:href="#DejaVuSans-52" x="261.572266"/>
      <use xlink:href="#DejaVuSans-61" x="328.804688"/>
      <use xlink:href="#DejaVuSans-6e" x="390.083984"/>
      <use xlink:href="#DejaVuSans-64" x="453.462891"/>
      <use xlink:href="#DejaVuSans-6f" x="516.939453"/>
      <use xlink:href="#DejaVuSans-6d" x="578.121094"/>
     </g>
    </g>
   </g>
  </g>
 </g>
 <defs>
  <clipPath id="pf7cbd8b87a">
   <rect x="18.646458" y="27.6" width="419.294792" height="361"/>
  </clipPath>
  <clipPath id="p4043a47a39">
   <rect x="461.513333" y="27.6" width="419.294792" height="361"/>
  </clipPath>
  <clipPath id="p9a05478f4b">
   <rect x="904.380208" y="27.6" width="419.294792" height="361"/>
  </clipPath>
 </defs>
</svg>
